# xmcd
#
# Track frame offsets:
#	150
#	14004
#	26618
#	37851
#	49217
#	62481
#	72650
#	84988
#	97118
#	112026
#	124638
#
# Disc length: 1827 seconds
#
# Revision: 1
# Processed by: cddbd v1.5.2PL0 Copyright (c) Steve Scherf et al.
# Submitted via: audiograbber 1.83.01
#
DISCID=9307210b
DTITLE=Jean Shepard - Poor Sweet Baby
DYEAR=1975
DGENRE=Country
TTITLE0=Poor Sweet Baby
TTITLE1=I'm Alright
TTITLE2=When The Worlds Collide
TTITLE3=At The Time
TTITLE4=The Tip Of My Fingers
TTITLE5=Slippin' Away
TTITLE6=Enough To Make A Woman Lose Her Mind
TTITLE7=Bright Lights And Country Music
TTITLE8=City Lights
TTITLE9=If You Can Live With It
TTITLE10=Think I'll Go Somewhere And Cry Myself To Sleep
EXTD=
EXTT0=
EXTT1=
EXTT2=
EXTT3=
EXTT4=
EXTT5=
EXTT6=
EXTT7=
EXTT8=
EXTT9=
EXTT10=
PLAYORDER=
